<svg width="70" height="60" viewBox="0 0 70 60" fill="none" xmlns="http://www.w3.org/2000/svg">
<g clip-path="url(#clip0_10_36)">
<path d="M14.5389 0C10.5448 0 7.58994 3.76176 7.72215 7.84118C7.84889 11.7599 7.68414 16.836 6.49633 20.975C5.30496 25.1268 3.29082 27.751 0 28.0882V31.9118C3.29068 32.249 5.30496 34.8732 6.49633 39.025C7.68414 43.164 7.84889 48.2401 7.72201 52.159C7.58994 56.2382 10.5448 60 14.5389 60H55.4661C59.4602 60 62.4151 56.2382 62.283 52.159C62.1562 48.2401 62.3209 43.164 63.5086 39.025C64.7001 34.8732 66.7093 32.249 70 31.9118V28.0882C66.7093 27.751 64.7001 25.1268 63.5086 20.975C62.3209 16.836 62.1562 11.7599 62.283 7.84118C62.4151 3.76176 59.4602 0 55.4661 0H14.5389ZM46.881 36.9268C46.881 42.544 42.9844 45.9496 36.518 45.9496H24.5958C24.5233 45.9496 24.4538 45.9186 24.4025 45.8634C24.3512 45.8083 24.3224 45.7334 24.3224 45.6554V14.3319C24.3224 14.2539 24.3512 14.1791 24.4025 14.1239C24.4538 14.0688 24.5233 14.0378 24.5958 14.0378H36.4548C41.8469 14.0378 45.3856 17.1781 45.3856 21.9993C45.3856 25.3828 43.0054 28.4125 39.9723 28.9432V29.1201C44.1007 29.6068 46.881 32.6807 46.881 36.9268ZM35.3173 18.0849H29.0406V27.6163H34.3273C38.4136 27.6163 40.6674 25.8472 40.6674 22.6847C40.6674 19.7213 38.7296 18.0849 35.3173 18.0849ZM29.0406 31.3981V41.9026H35.5491C39.8037 41.9026 42.0576 40.0671 42.0576 36.6172C42.0576 33.1672 39.7406 31.3981 35.2752 31.3981H29.0406Z" fill="black"/>
</g>
<defs>
<clipPath id="clip0_10_36">
<rect width="70" height="60" fill="white"/>
</clipPath>
</defs>
</svg>
