<svg width="60" height="50" viewBox="0 0 60 50" fill="none" xmlns="http://www.w3.org/2000/svg">
<g clip-path="url(#clip0_10_36)">
<path d="M12.462 0C9.03844 0 6.50566 3.1348 6.61898 6.53431C6.72762 9.79988 6.58641 14.03 5.56828 17.4792C4.54711 20.939 2.8207 23.1259 0 23.4069V26.5931C2.82059 26.8741 4.54711 29.061 5.56828 32.5208C6.58641 35.97 6.72762 40.2001 6.61887 43.4658C6.50566 46.8652 9.03844 50 12.462 50H47.5424C50.9659 50 53.4987 46.8652 53.3855 43.4658C53.2767 40.2001 53.4179 35.97 54.4359 32.5208C55.4572 29.061 57.1794 26.8741 60 26.5931V23.4069C57.1794 23.1259 55.4572 20.939 54.4359 17.4792C53.4179 14.03 53.2767 9.79988 53.3855 6.53431C53.4987 3.1348 50.9659 0 47.5424 0H12.462ZM40.1837 30.7723C40.1837 35.4533 36.8437 38.2913 31.3011 38.2913H21.0821C21.02 38.2913 20.9604 38.2655 20.9164 38.2195C20.8725 38.1735 20.8478 38.1112 20.8478 38.0462V11.9433C20.8478 11.8783 20.8725 11.8159 20.9164 11.7699C20.9604 11.724 21.02 11.6982 21.0821 11.6982H31.247C35.8687 11.6982 38.9019 14.3151 38.9019 18.3327C38.9019 21.1523 36.8618 23.6771 34.262 24.1194V24.2668C37.8006 24.6723 40.1837 27.2339 40.1837 30.7723ZM30.272 15.0707H24.8919V23.0136H29.4234C32.9259 23.0136 34.8578 21.5393 34.8578 18.9039C34.8578 16.4344 33.1968 15.0707 30.272 15.0707ZM24.8919 26.1651V34.9189H30.4706C34.1175 34.9189 36.0493 33.3892 36.0493 30.5143C36.0493 27.6393 34.0634 26.1651 30.2359 26.1651H24.8919Z" fill="black"/>
</g>
<defs>
<clipPath id="clip0_10_36">
<rect width="60" height="50" fill="white"/>
</clipPath>
</defs>
</svg>
